<svg width="60" height="65" viewBox="0 0 60 65" fill="none" xmlns="http://www.w3.org/2000/svg">
<path fill-rule="evenodd" clip-rule="evenodd" d="M44.7129 8.29459L29.8779 0L15.0429 8.29459L-7.62939e-06 16.25L0.207869 32.5L-7.62939e-06 48.75L15.0429 56.7054L29.8779 65L44.7129 56.7054L59.7557 48.75L59.5479 32.5L59.7557 16.25L44.7129 8.29459ZM42.9929 11.2737L29.8779 4L16.7629 11.2737L3.46409 18.25L3.64787 32.5L3.46409 46.75L16.7629 53.7263L29.8779 61L42.9929 53.7263L56.2916 46.75L56.1079 32.5L56.2916 18.25L42.9929 11.2737Z" fill="#61F8D5"/>
<path d="M24.4492 37.9106L25.6455 42H28.6851L22.9966 24.2266H20.3965L14.6104 42H17.6621L18.8706 37.9106H24.4492ZM19.6152 35.396L21.6904 28.3647L23.729 35.396H19.6152ZM40.0986 37.4224C40.0986 37.813 40.0132 38.1589 39.8423 38.46C39.6795 38.7611 39.4598 39.0133 39.1831 39.2168C38.8983 39.4284 38.5605 39.5871 38.1699 39.6929C37.7874 39.7987 37.3724 39.8516 36.9248 39.8516C36.3958 39.8516 35.9076 39.7865 35.46 39.6562C35.0205 39.526 34.638 39.3267 34.3125 39.0581C33.9788 38.7977 33.7144 38.4681 33.519 38.0693C33.3319 37.6624 33.2179 37.1864 33.1772 36.6411H30.2476C30.2557 37.4956 30.4266 38.2524 30.7603 38.9116C31.1021 39.5708 31.5618 40.1445 32.1396 40.6328C32.7663 41.1536 33.5028 41.5524 34.3491 41.8291C35.1955 42.0977 36.054 42.2319 36.9248 42.2319C37.7467 42.2319 38.528 42.1302 39.2686 41.9268C40.0091 41.7152 40.6602 41.4019 41.2217 40.9868C41.7751 40.5881 42.2145 40.0876 42.54 39.4854C42.8737 38.8831 43.0405 38.1873 43.0405 37.3979C43.0405 36.5435 42.8493 35.7907 42.4668 35.1396C42.0924 34.4805 41.592 33.9149 40.9653 33.4429C40.4608 33.0685 39.9074 32.7511 39.3052 32.4907C38.7111 32.2222 38.1007 31.9984 37.4741 31.8193C36.9777 31.6729 36.5016 31.5142 36.0459 31.3433C35.5983 31.1724 35.1995 30.973 34.8496 30.7451C34.5078 30.5173 34.2352 30.2528 34.0317 29.9517C33.8283 29.6424 33.7225 29.2843 33.7144 28.8774C33.7144 28.495 33.7917 28.1491 33.9463 27.8398C34.1009 27.5306 34.3166 27.2661 34.5933 27.0464C34.87 26.8348 35.1955 26.672 35.5698 26.5581C35.9523 26.436 36.3674 26.375 36.8149 26.375C37.3276 26.375 37.7793 26.4523 38.1699 26.6069C38.5687 26.7534 38.9064 26.9569 39.1831 27.2173C39.4517 27.4858 39.6592 27.8073 39.8057 28.1816C39.9603 28.5479 40.0579 28.9548 40.0986 29.4023H43.0039C43.0039 28.5967 42.8411 27.8643 42.5156 27.2051C42.1982 26.5378 41.7629 25.964 41.2095 25.4839C40.6561 25.0119 40.005 24.6457 39.2563 24.3853C38.5158 24.1167 37.7142 23.9824 36.8516 23.9824C36.0378 23.9824 35.2606 24.0964 34.52 24.3242C33.7876 24.5439 33.1447 24.8654 32.5913 25.2886C32.0379 25.7199 31.5985 26.2407 31.2729 26.8511C30.9474 27.4533 30.7847 28.1328 30.7847 28.8896C30.7847 29.5895 30.923 30.2202 31.1997 30.7817C31.4845 31.3351 31.8752 31.8315 32.3716 32.271C32.868 32.7023 33.4661 33.0929 34.166 33.4429C34.874 33.7847 35.6471 34.0736 36.4854 34.3096C37.0306 34.4642 37.5229 34.6392 37.9624 34.8345C38.41 35.0216 38.7965 35.2332 39.1221 35.4692C39.4313 35.7215 39.6714 36.0063 39.8423 36.3237C40.0132 36.6411 40.0986 37.0073 40.0986 37.4224Z" fill="#61F8D5"/>
</svg>
