<svg
          width="110"
          height="112"
          viewBox="0 0 110 112"
          fill="none"
          xmlns="http://www.w3.org/2000/svg"
        >
          <g id="Group 2">
            <path
              id="main_logo_hexagon"
              d="M5 30.1667L54.5146 6L105 30.1667V81L54.5146 106L5 81V30.1667Z"
              stroke="#61F8D5"
              stroke-width="6"
            />
            <g id="main_logo_as" className="d-none">
              <path
                d="M43.8281 43.8147L34.4141 69.7327H30.5664L41.4062 41.2952H43.8867L43.8281 43.8147ZM51.7188 69.7327L42.2852 43.8147L42.2266 41.2952H44.707L55.5859 69.7327H51.7188ZM51.2305 59.2053V62.2913H35.2539V59.2053H51.2305ZM74.5508 62.5452C74.5508 61.8811 74.4466 61.2952 74.2383 60.7874C74.043 60.2665 73.6914 59.7978 73.1836 59.3811C72.6888 58.9644 71.9987 58.5673 71.1133 58.1897C70.2409 57.8121 69.1341 57.428 67.793 57.0374C66.3867 56.6207 65.1172 56.1584 63.9844 55.6506C62.8516 55.1298 61.8815 54.5374 61.0742 53.8733C60.2669 53.2092 59.6484 52.4475 59.2188 51.5881C58.7891 50.7288 58.5742 49.7457 58.5742 48.6389C58.5742 47.5321 58.8021 46.51 59.2578 45.5725C59.7135 44.635 60.3646 43.8212 61.2109 43.1311C62.0703 42.428 63.0924 41.8811 64.2773 41.4905C65.4622 41.0999 66.7839 40.9045 68.2422 40.9045C70.3776 40.9045 72.1875 41.3147 73.6719 42.135C75.1693 42.9423 76.3086 44.0035 77.0898 45.3186C77.8711 46.6207 78.2617 48.0139 78.2617 49.4983H74.5117C74.5117 48.4306 74.2839 47.4866 73.8281 46.6663C73.3724 45.8329 72.6823 45.1819 71.7578 44.7131C70.8333 44.2314 69.6615 43.9905 68.2422 43.9905C66.901 43.9905 65.7943 44.1923 64.9219 44.5959C64.0495 44.9996 63.3984 45.5465 62.9688 46.2366C62.5521 46.9267 62.3438 47.7144 62.3438 48.5999C62.3438 49.1988 62.4674 49.7457 62.7148 50.2405C62.9753 50.7222 63.3724 51.1715 63.9062 51.5881C64.4531 52.0048 65.1432 52.3889 65.9766 52.7405C66.8229 53.092 67.832 53.4306 69.0039 53.7561C70.6185 54.2118 72.0117 54.7196 73.1836 55.2795C74.3555 55.8394 75.319 56.4709 76.0742 57.1741C76.8424 57.8642 77.4089 58.6519 77.7734 59.5374C78.151 60.4097 78.3398 61.3993 78.3398 62.5061C78.3398 63.665 78.1055 64.7131 77.6367 65.6506C77.168 66.5881 76.4974 67.3889 75.625 68.053C74.7526 68.717 73.7044 69.2314 72.4805 69.5959C71.2695 69.9475 69.9154 70.1233 68.418 70.1233C67.1029 70.1233 65.8073 69.941 64.5312 69.5764C63.2682 69.2118 62.1159 68.665 61.0742 67.9358C60.0456 67.2066 59.2188 66.3082 58.5938 65.2405C57.9818 64.1597 57.6758 62.9097 57.6758 61.4905H61.4258C61.4258 62.467 61.6146 63.3069 61.9922 64.01C62.3698 64.7001 62.8841 65.273 63.5352 65.7288C64.1992 66.1845 64.9479 66.523 65.7812 66.7444C66.6276 66.9527 67.5065 67.0569 68.418 67.0569C69.7331 67.0569 70.8464 66.8746 71.7578 66.51C72.6693 66.1454 73.3594 65.6246 73.8281 64.9475C74.3099 64.2704 74.5508 63.4696 74.5508 62.5452Z"
                fill="#61F8D5"
              />
              <path
                d="M43.8281 43.8147L44.768 44.1561L44.824 44.0019L44.8279 43.8379L43.8281 43.8147ZM34.4141 69.7327V70.7327H35.1148L35.354 70.0741L34.4141 69.7327ZM30.5664 69.7327L29.632 69.3765L29.115 70.7327H30.5664V69.7327ZM41.4062 41.2952V40.2952H40.7172L40.4718 40.939L41.4062 41.2952ZM43.8867 41.2952L44.8864 41.3184L44.9102 40.2952H43.8867V41.2952ZM51.7188 69.7327L50.7791 70.0747L51.0185 70.7327H51.7188V69.7327ZM42.2852 43.8147L41.2854 43.8379L41.2892 44.0023L41.3455 44.1567L42.2852 43.8147ZM42.2266 41.2952V40.2952H41.203L41.2268 41.3184L42.2266 41.2952ZM44.707 41.2952L45.641 40.9379L45.3952 40.2952H44.707V41.2952ZM55.5859 69.7327V70.7327H57.0392L56.5199 69.3754L55.5859 69.7327ZM51.2305 59.2053H52.2305V58.2053H51.2305V59.2053ZM51.2305 62.2913V63.2913H52.2305V62.2913H51.2305ZM35.2539 62.2913H34.2539V63.2913H35.2539V62.2913ZM35.2539 59.2053V58.2053H34.2539V59.2053H35.2539ZM42.8882 43.4733L33.4741 69.3913L35.354 70.0741L44.768 44.1561L42.8882 43.4733ZM34.4141 68.7327H30.5664V70.7327H34.4141V68.7327ZM31.5008 70.0888L42.3407 41.6513L40.4718 40.939L29.632 69.3765L31.5008 70.0888ZM41.4062 42.2952H43.8867V40.2952H41.4062V42.2952ZM42.887 41.2719L42.8284 43.7914L44.8279 43.8379L44.8864 41.3184L42.887 41.2719ZM52.6584 69.3906L43.2248 43.4727L41.3455 44.1567L50.7791 70.0747L52.6584 69.3906ZM43.2849 43.7914L43.2263 41.2719L41.2268 41.3184L41.2854 43.8379L43.2849 43.7914ZM42.2266 42.2952H44.707V40.2952H42.2266V42.2952ZM43.773 41.6525L54.6519 70.09L56.5199 69.3754L45.641 40.9379L43.773 41.6525ZM55.5859 68.7327H51.7188V70.7327H55.5859V68.7327ZM50.2305 59.2053V62.2913H52.2305V59.2053H50.2305ZM51.2305 61.2913H35.2539V63.2913H51.2305V61.2913ZM36.2539 62.2913V59.2053H34.2539V62.2913H36.2539ZM35.2539 60.2053H51.2305V58.2053H35.2539V60.2053ZM74.2383 60.7874L73.302 61.1385L73.3073 61.1528L73.3131 61.1669L74.2383 60.7874ZM73.1836 59.3811L72.5394 60.1461L72.5493 60.1542L73.1836 59.3811ZM71.1133 58.1897L70.7161 59.1074L70.721 59.1095L71.1133 58.1897ZM67.793 57.0374L67.5089 57.9962L67.5133 57.9975L67.793 57.0374ZM63.9844 55.6506L63.5666 56.5592L63.5753 56.5631L63.9844 55.6506ZM61.2109 43.1311L61.8429 43.9061L61.8442 43.9051L61.2109 43.1311ZM73.6719 42.135L73.1882 43.0103L73.1973 43.0152L73.6719 42.135ZM77.0898 45.3186L76.2301 45.8293L76.2324 45.8331L77.0898 45.3186ZM78.2617 49.4983V50.4983H79.2617V49.4983H78.2617ZM74.5117 49.4983H73.5117V50.4983H74.5117V49.4983ZM73.8281 46.6663L72.9507 47.1461L72.954 47.1519L73.8281 46.6663ZM71.7578 44.7131L71.2956 45.6L71.3056 45.605L71.7578 44.7131ZM62.9688 46.2366L62.1198 45.708L62.1127 45.7197L62.9688 46.2366ZM62.7148 50.2405L61.8204 50.6877L61.8276 50.702L61.8351 50.716L62.7148 50.2405ZM63.9062 51.5881L63.2909 52.3765L63.3002 52.3836L63.9062 51.5881ZM65.9766 52.7405L65.5879 53.6619L65.593 53.664L65.9766 52.7405ZM69.0039 53.7561L69.2756 52.7937L69.2716 52.7926L69.0039 53.7561ZM76.0742 57.1741L75.3928 57.906L75.3993 57.912L75.406 57.918L76.0742 57.1741ZM77.7734 59.5374L76.8488 59.9181L76.8522 59.9264L76.8557 59.9346L77.7734 59.5374ZM75.625 68.053L75.0193 67.2573L75.625 68.053ZM72.4805 69.5959L72.7593 70.5563L72.7659 70.5543L72.4805 69.5959ZM64.5312 69.5764L64.2539 70.5372L64.2565 70.5379L64.5312 69.5764ZM61.0742 67.9358L60.4959 68.7516L60.5008 68.755L61.0742 67.9358ZM58.5938 65.2405L57.7236 65.7332L57.7271 65.7395L57.7307 65.7457L58.5938 65.2405ZM57.6758 61.4905V60.4905H56.6758V61.4905H57.6758ZM61.4258 61.4905H62.4258V60.4905H61.4258V61.4905ZM61.9922 64.01L61.1112 64.4832L61.1149 64.49L61.9922 64.01ZM63.5352 65.7288L62.9617 66.548L62.9693 66.5533L63.5352 65.7288ZM65.7812 66.7444L65.5245 67.7109L65.5334 67.7132L65.5422 67.7154L65.7812 66.7444ZM73.8281 64.9475L73.0133 64.3677L73.0059 64.3783L73.8281 64.9475ZM75.5508 62.5452C75.5508 61.7776 75.4304 61.0585 75.1634 60.4078L73.3131 61.1669C73.4628 61.5319 73.5508 61.9846 73.5508 62.5452H75.5508ZM75.1746 60.4362C74.9072 59.723 74.437 59.116 73.8179 58.608L72.5493 60.1542C72.9458 60.4795 73.1788 60.81 73.302 61.1385L75.1746 60.4362ZM73.8277 58.6162C73.2299 58.1127 72.4422 57.6693 71.5056 57.2699L70.721 59.1095C71.5552 59.4653 72.1477 59.8161 72.5395 60.146L73.8277 58.6162ZM71.5105 57.272C70.5866 56.8721 69.4371 56.4747 68.0726 56.0772L67.5133 57.9975C68.8312 58.3813 69.8951 58.7521 70.7161 59.1074L71.5105 57.272ZM68.0771 56.0786C66.706 55.6723 65.4792 55.2248 64.3934 54.7381L63.5753 56.5631C64.7552 57.0921 66.0674 57.569 67.5089 57.9962L68.0771 56.0786ZM64.4021 54.7421C63.3329 54.2505 62.4391 53.7012 61.7095 53.101L60.4389 54.6456C61.3239 55.3735 62.3703 56.0091 63.5666 56.5592L64.4021 54.7421ZM61.7095 53.101C61.0008 52.518 60.4749 51.8643 60.1132 51.1409L58.3243 52.0353C58.822 53.0307 59.5331 53.9004 60.4389 54.6456L61.7095 53.101ZM60.1132 51.1409C59.7628 50.4401 59.5742 49.6141 59.5742 48.6389H57.5742C57.5742 49.8773 57.8154 51.0174 58.3243 52.0353L60.1132 51.1409ZM59.5742 48.6389C59.5742 47.674 59.7717 46.8026 60.1572 46.0097L58.3584 45.1353C57.8324 46.2174 57.5742 47.3902 57.5742 48.6389H59.5742ZM60.1572 46.0097C60.5463 45.2091 61.1037 44.5089 61.8429 43.9061L60.579 42.3561C59.6255 43.1335 58.8807 44.0609 58.3584 45.1353L60.1572 46.0097ZM61.8442 43.9051C62.5975 43.2887 63.5078 42.7971 64.5904 42.4402L63.9642 40.5408C62.6771 40.9651 61.5431 41.5673 60.5777 42.3571L61.8442 43.9051ZM64.5904 42.4402C65.6589 42.088 66.8727 41.9045 68.2422 41.9045V39.9045C66.695 39.9045 65.2656 40.1117 63.9642 40.5408L64.5904 42.4402ZM68.2422 41.9045C70.2515 41.9045 71.8855 42.2903 73.1882 43.0103L74.1556 41.2598C72.4895 40.3391 70.5037 39.9045 68.2422 39.9045V41.9045ZM73.1973 43.0152C74.5536 43.7464 75.5515 44.687 76.2301 45.8293L77.9496 44.8079C77.0657 43.32 75.785 42.1382 74.1464 41.2548L73.1973 43.0152ZM76.2324 45.8331C76.9226 46.9835 77.2617 48.1995 77.2617 49.4983H79.2617C79.2617 47.8283 78.8196 46.2579 77.9473 44.8041L76.2324 45.8331ZM78.2617 48.4983H74.5117V50.4983H78.2617V48.4983ZM75.5117 49.4983C75.5117 48.2844 75.2514 47.1689 74.7023 46.1806L72.954 47.1519C73.3164 47.8042 73.5117 48.5768 73.5117 49.4983H75.5117ZM74.7055 46.1864C74.144 45.1598 73.2974 44.3726 72.21 43.8212L71.3056 45.605C72.0672 45.9912 72.6008 46.5061 72.9508 47.1461L74.7055 46.1864ZM72.22 43.8263C71.1107 43.2482 69.767 42.9905 68.2422 42.9905V44.9905C69.5559 44.9905 70.556 45.2145 71.2957 45.5999L72.22 43.8263ZM68.2422 42.9905C66.8097 42.9905 65.5472 43.2047 64.502 43.6884L65.3418 45.5035C66.0413 45.1799 66.9924 44.9905 68.2422 44.9905V42.9905ZM64.502 43.6884C63.4855 44.1587 62.6701 44.8242 62.1199 45.708L63.8176 46.7651C64.1267 46.2687 64.6134 45.8405 65.3418 45.5035L64.502 43.6884ZM62.1127 45.7197C61.5927 46.5809 61.3438 47.5507 61.3438 48.5999H63.3438C63.3438 47.8781 63.5114 47.2725 63.8248 46.7534L62.1127 45.7197ZM61.3438 48.5999C61.3438 49.341 61.498 50.0428 61.8204 50.6877L63.6093 49.7933C63.4369 49.4486 63.3438 49.0567 63.3438 48.5999H61.3438ZM61.8351 50.716C62.1747 51.3443 62.6734 51.8944 63.291 52.3765L64.5215 50.7998C64.0714 50.4485 63.7758 50.1002 63.5946 49.765L61.8351 50.716ZM63.3002 52.3836C63.9311 52.8643 64.6999 53.2872 65.5879 53.6618L66.3653 51.8191C65.5866 51.4906 64.9751 51.1453 64.5123 50.7927L63.3002 52.3836ZM65.593 53.664C66.487 54.0354 67.5368 54.3865 68.7363 54.7196L69.2716 52.7926C68.1272 52.4747 67.1588 52.1487 66.3602 51.817L65.593 53.664ZM68.7323 54.7185C70.307 55.163 71.6443 55.6524 72.7525 56.1818L73.6147 54.3772C72.3792 53.7869 70.93 53.2607 69.2756 52.7937L68.7323 54.7185ZM72.7525 56.1818C73.8553 56.7088 74.7282 57.2872 75.3928 57.906L76.7556 56.4422C75.9098 55.6547 74.8556 54.9701 73.6147 54.3772L72.7525 56.1818ZM75.406 57.918C76.0715 58.5158 76.5457 59.1821 76.8488 59.9181L78.6981 59.1566C78.272 58.1217 77.6134 57.2125 76.7425 56.4302L75.406 57.918ZM76.8557 59.9346C77.1709 60.6627 77.3398 61.5138 77.3398 62.5061H79.3398C79.3398 61.2849 79.1312 60.1568 78.6912 59.1401L76.8557 59.9346ZM77.3398 62.5061C77.3398 63.5263 77.1345 64.4189 76.7423 65.2034L78.5311 66.0978C79.0764 65.0073 79.3398 63.8036 79.3398 62.5061H77.3398ZM76.7423 65.2034C76.3451 65.9979 75.7759 66.6814 75.0193 67.2573L76.2307 68.8487C77.2189 68.0964 77.9909 67.1784 78.5311 66.0978L76.7423 65.2034ZM75.0193 67.2573C74.2574 67.8373 73.322 68.3019 72.195 68.6376L72.7659 70.5543C74.0868 70.1609 75.2478 69.5968 76.2307 68.8487L75.0193 67.2573ZM72.2017 68.6356C71.0964 68.9565 69.8381 69.1233 68.418 69.1233V71.1233C69.9926 71.1233 71.4426 70.9385 72.7593 70.5563L72.2017 68.6356ZM68.418 69.1233C67.1966 69.1233 65.9935 68.9542 64.806 68.6149L64.2565 70.5379C65.6211 70.9278 67.0091 71.1233 68.418 71.1233V69.1233ZM64.8086 68.6156C63.6478 68.2806 62.5961 67.7804 61.6477 67.1166L60.5008 68.755C61.6357 69.5495 62.8887 70.1431 64.2539 70.5372L64.8086 68.6156ZM61.6525 67.12C60.7375 66.4713 60.0086 65.678 59.4568 64.7353L57.7307 65.7457C58.4289 66.9384 59.3537 67.9419 60.4959 68.7516L61.6525 67.12ZM59.4639 64.7477C58.9486 63.8376 58.6758 62.7621 58.6758 61.4905H56.6758C56.6758 63.0574 57.015 64.4819 57.7236 65.7332L59.4639 64.7477ZM57.6758 62.4905H61.4258V60.4905H57.6758V62.4905ZM60.4258 61.4905C60.4258 62.5956 60.6398 63.6055 61.1112 64.4831L62.8732 63.5369C62.5893 63.0083 62.4258 62.3384 62.4258 61.4905H60.4258ZM61.1149 64.49C61.5671 65.3165 62.186 66.005 62.9617 66.548L64.1086 64.9095C63.5822 64.5411 63.1724 64.0837 62.8694 63.53L61.1149 64.49ZM62.9693 66.5533C63.734 67.0781 64.5886 67.4623 65.5245 67.7109L66.038 65.7779C65.3072 65.5838 64.6644 65.2909 64.101 64.9042L62.9693 66.5533ZM65.5422 67.7154C66.4703 67.9438 67.4296 68.0569 68.418 68.0569V66.0569C67.5834 66.0569 66.7849 65.9616 66.0203 65.7734L65.5422 67.7154ZM68.418 68.0569C69.8196 68.0569 71.0669 67.8634 72.1292 67.4385L71.3864 65.5815C70.6258 65.8858 69.6466 66.0569 68.418 66.0569V68.0569ZM72.1292 67.4385C73.1874 67.0152 74.0498 66.3841 74.6503 65.5167L73.0059 64.3783C72.6689 64.8651 72.1512 65.2756 71.3864 65.5815L72.1292 67.4385ZM74.6429 65.5273C75.2586 64.662 75.5508 63.653 75.5508 62.5452H73.5508C73.5508 63.2863 73.3612 63.8789 73.0133 64.3678L74.6429 65.5273Z"
                fill="#61F8D5"
              />
            </g>
          </g>
        </svg>